<svg width="1440" height="1024" viewBox="0 0 1440 1024" fill="none" xmlns="http://www.w3.org/2000/svg">
<rect width="1440" height="1024" fill="#F5F5F5"/>
<g id="Desktop - 1">
<rect width="1440" height="1024" fill="white"/>
<g id="Group 3">
<g id="Group 1">
<rect id="Rectangle 1" x="209" y="431" width="286" height="229" fill="#D9D9D9"/>
<path id="Polygon 1" d="M633 545.5L364.5 712.21L364.5 378.79L633 545.5Z" fill="url(#paint0_linear_0_1)" fill-opacity="0.81"/>
<path id="Polygon 2" d="M96 545.5L364.5 712.21L364.5 378.79L96 545.5Z" fill="url(#paint1_linear_0_1)" fill-opacity="0.81"/>
</g>
<g id="Group 2">
<g id="omkz tech hub">
<mask id="path-4-outside-1_0_1" maskUnits="userSpaceOnUse" x="255" y="637" width="210" height="25" fill="black">
<rect fill="white" x="255" y="637" width="210" height="25"/>
<path d="M263.05 660.6C258.65 660.6 256.45 658.53 256.45 654.39C256.45 651.45 257.26 649.03 258.88 647.13C260.6 645.11 262.95 644.1 265.93 644.1C268.09 644.1 269.72 644.6 270.82 645.6C271.92 646.6 272.47 648.15 272.47 650.25C272.47 653.45 271.61 655.98 269.89 657.84C268.21 659.68 265.93 660.6 263.05 660.6ZM263.83 647.55C263.59 648.09 263.37 648.77 263.17 649.59C262.99 650.39 262.78 651.43 262.54 652.71C262.3 653.99 262.18 655.42 262.18 657C262.18 657.52 262.26 657.95 262.42 658.29C262.6 658.63 262.92 658.8 263.38 658.8C263.84 658.8 264.21 658.69 264.49 658.47C264.79 658.25 265.05 657.88 265.27 657.36C265.67 656.44 266.03 655.13 266.35 653.43C266.67 651.71 266.84 650.48 266.86 649.74C266.9 649 266.92 648.36 266.92 647.82C266.92 647.26 266.84 646.8 266.68 646.44C266.52 646.08 266.21 645.9 265.75 645.9C265.31 645.9 264.94 646.04 264.64 646.32C264.34 646.6 264.07 647.01 263.83 647.55ZM295.835 660.6C293.415 660.6 292.205 659.66 292.205 657.78C292.205 656.96 292.375 655.76 292.715 654.18C293.075 652.58 293.315 651.46 293.435 650.82C293.715 649.36 293.855 648.4 293.855 647.94C293.855 646.92 293.475 646.41 292.715 646.41C292.215 646.41 291.725 646.76 291.245 647.46C290.765 648.14 290.415 649.17 290.195 650.55L288.335 660L282.485 660.6L284.105 652.44C284.285 651.54 284.455 650.58 284.615 649.56C284.775 648.54 284.855 647.95 284.855 647.79C284.855 646.87 284.515 646.41 283.835 646.41C283.375 646.41 282.895 646.75 282.395 647.43C281.895 648.11 281.505 649.15 281.225 650.55L279.395 660L273.485 660.6L276.635 644.7L281.525 644.1L281.015 647.13C281.535 646.05 282.275 645.28 283.235 644.82C284.195 644.34 285.425 644.1 286.925 644.1C287.785 644.1 288.495 644.31 289.055 644.73C289.615 645.15 289.985 645.7 290.165 646.38C290.505 645.68 291.105 645.13 291.965 644.73C292.845 644.31 293.815 644.1 294.875 644.1C295.955 644.1 296.755 644.22 297.275 644.46C297.815 644.68 298.245 644.98 298.565 645.36C299.105 646.06 299.375 647.05 299.375 648.33C299.375 649.59 299.105 651.53 298.565 654.15C298.285 655.43 298.145 656.31 298.145 656.79C298.145 657.25 298.275 657.62 298.535 657.9C298.815 658.18 299.155 658.34 299.555 658.38C299.355 659.06 298.905 659.6 298.205 660C297.525 660.4 296.735 660.6 295.835 660.6ZM309.602 645.78C310.682 644.66 312.362 644.1 314.642 644.1C315.902 644.1 316.872 644.44 317.552 645.12C318.252 645.78 318.602 646.73 318.602 647.97C318.602 649.19 318.252 650.24 317.552 651.12C316.872 651.98 315.892 652.59 314.612 652.95C314.712 653.35 314.832 653.76 314.972 654.18L315.392 655.38C315.772 656.4 316.112 657.09 316.412 657.45C316.712 657.81 317.062 658.05 317.462 658.17C317.242 658.99 316.732 659.62 315.932 660.06C315.292 660.42 314.532 660.6 313.652 660.6C311.072 660.6 309.612 658.61 309.272 654.63C309.212 654.07 309.182 653.51 309.182 652.95C310.182 652.67 311.032 652.06 311.732 651.12C312.432 650.18 312.782 649.16 312.782 648.06C312.782 646.96 312.392 646.41 311.612 646.41C311.052 646.41 310.552 646.72 310.112 647.34C309.672 647.96 309.352 648.8 309.152 649.86L307.172 660L301.112 660.6L305.312 639L311.342 638.4L310.652 641.97C310.352 643.65 310.002 644.92 309.602 645.78ZM325.727 660.3C324.787 660.1 324.067 659.96 323.567 659.88C323.087 659.78 322.557 659.73 321.977 659.73C321.417 659.73 320.857 659.83 320.297 660.03C319.997 659.85 319.747 659.58 319.547 659.22C319.367 658.86 319.277 658.4 319.277 657.84C319.277 656.66 319.877 655.62 321.077 654.72L328.697 649.23C327.277 648.83 325.917 648.63 324.617 648.63C323.337 648.63 322.467 649.07 322.007 649.95C321.327 649.15 320.987 648.12 320.987 646.86C320.987 646.02 321.287 645.33 321.887 644.79C322.507 644.23 323.457 643.95 324.737 643.95C325.457 643.95 326.137 644 326.777 644.1C327.437 644.18 328.057 644.26 328.637 644.34L330.257 644.58C330.777 644.66 331.297 644.7 331.817 644.7C332.357 644.7 332.827 644.59 333.227 644.37C333.747 644.85 334.007 645.42 334.007 646.08C334.007 647.12 333.367 648.18 332.087 649.26L324.497 654.93C326.057 655.39 327.237 655.62 328.037 655.62C329.717 655.62 330.917 655.22 331.637 654.42C332.197 655.06 332.477 655.94 332.477 657.06C332.477 658.16 332.117 659.03 331.397 659.67C330.677 660.29 329.667 660.6 328.367 660.6C327.567 660.6 326.687 660.5 325.727 660.3ZM341.746 657C341.746 656.46 341.886 655.51 342.166 654.15L343.756 646.05H341.986L342.106 645.15C344.506 644.43 346.866 643.19 349.186 641.43H350.626L349.906 644.7H352.246L351.976 646.05H349.666L348.136 654.15C347.876 655.39 347.746 656.22 347.746 656.64C347.746 657.6 348.166 658.18 349.006 658.38C348.806 659.06 348.346 659.6 347.626 660C346.906 660.4 346.036 660.6 345.016 660.6C343.996 660.6 343.196 660.28 342.616 659.64C342.036 659 341.746 658.12 341.746 657ZM364.139 654.93C364.639 655.27 364.889 655.82 364.889 656.58C364.889 657.32 364.699 657.93 364.319 658.41C363.939 658.89 363.439 659.29 362.819 659.61C361.539 660.27 360.209 660.6 358.829 660.6C357.449 660.6 356.349 660.45 355.529 660.15C354.729 659.85 354.059 659.42 353.519 658.86C352.459 657.8 351.929 656.3 351.929 654.36C351.929 651.34 352.749 648.91 354.389 647.07C356.149 645.09 358.559 644.1 361.619 644.1C363.519 644.1 364.939 644.5 365.879 645.3C366.579 645.9 366.929 646.69 366.929 647.67C366.929 651.19 363.889 652.95 357.809 652.95C357.729 653.47 357.689 653.95 357.689 654.39C357.689 655.31 357.889 655.95 358.289 656.31C358.709 656.65 359.299 656.82 360.059 656.82C360.819 656.82 361.599 656.65 362.399 656.31C363.219 655.95 363.799 655.49 364.139 654.93ZM358.019 651.66C359.439 651.66 360.559 651.22 361.379 650.34C362.199 649.5 362.609 648.41 362.609 647.07C362.609 646.61 362.519 646.26 362.339 646.02C362.179 645.76 361.929 645.63 361.589 645.63C361.249 645.63 360.929 645.7 360.629 645.84C360.349 645.96 360.059 646.24 359.759 646.68C359.019 647.68 358.439 649.34 358.019 651.66ZM382.685 647.52C382.685 648.36 382.335 649.04 381.635 649.56C380.935 650.08 380.015 650.34 378.875 650.34C378.395 650.34 378.015 650.27 377.735 650.13C377.955 649.61 378.095 649.03 378.155 648.39C378.235 647.73 378.275 647.31 378.275 647.13C378.275 646.29 377.985 645.87 377.405 645.87C377.005 645.87 376.575 646.12 376.115 646.62C375.675 647.12 375.265 647.76 374.885 648.54C374.045 650.34 373.625 652.15 373.625 653.97C373.625 654.97 373.815 655.7 374.195 656.16C374.575 656.6 375.185 656.82 376.025 656.82C377.185 656.82 378.225 656.34 379.145 655.38C379.405 655.08 379.605 654.76 379.745 654.42C380.505 654.82 380.885 655.57 380.885 656.67C380.885 657.79 380.265 658.72 379.025 659.46C377.745 660.22 376.085 660.6 374.045 660.6C369.985 660.6 367.955 658.45 367.955 654.15C367.955 651.01 368.845 648.54 370.625 646.74C372.345 644.98 374.785 644.1 377.945 644.1C381.105 644.1 382.685 645.24 382.685 647.52ZM398.573 656.67C398.573 657.55 399.023 658.12 399.923 658.38C399.703 659.12 399.163 659.69 398.303 660.09C397.583 660.43 396.823 660.6 396.023 660.6C395.243 660.6 394.643 660.49 394.223 660.27C393.823 660.07 393.513 659.8 393.293 659.46C392.933 658.94 392.753 658.19 392.753 657.21C392.753 656.63 392.913 655.54 393.233 653.94L393.653 651.66C393.993 649.92 394.163 648.73 394.163 648.09C394.163 646.97 393.853 646.41 393.233 646.41C392.453 646.41 391.813 646.98 391.313 648.12C391.113 648.56 390.943 649.11 390.803 649.77L388.763 660L382.733 660.6L386.963 639L392.993 638.4L392.753 639.6C392.193 642.68 391.673 644.74 391.193 645.78C392.313 644.66 393.903 644.1 395.963 644.1C398.143 644.1 399.433 644.82 399.833 646.26C399.973 646.72 400.043 647.15 400.043 647.55C400.043 647.95 400.023 648.31 399.983 648.63C399.963 648.93 399.903 649.36 399.803 649.92L399.413 652.08L398.723 655.47C398.623 655.93 398.573 656.33 398.573 656.67ZM423.621 656.67C423.621 657.55 424.071 658.12 424.971 658.38C424.751 659.12 424.211 659.69 423.351 660.09C422.631 660.43 421.871 660.6 421.071 660.6C420.291 660.6 419.691 660.49 419.271 660.27C418.871 660.07 418.561 659.8 418.341 659.46C417.981 658.94 417.801 658.19 417.801 657.21C417.801 656.63 417.961 655.54 418.281 653.94L418.701 651.66C419.041 649.92 419.211 648.73 419.211 648.09C419.211 646.97 418.901 646.41 418.281 646.41C417.501 646.41 416.861 646.98 416.361 648.12C416.161 648.56 415.991 649.11 415.851 649.77L413.811 660L407.781 660.6L412.011 639L418.041 638.4L417.801 639.6C417.241 642.68 416.721 644.74 416.241 645.78C417.361 644.66 418.951 644.1 421.011 644.1C423.191 644.1 424.481 644.82 424.881 646.26C425.021 646.72 425.091 647.15 425.091 647.55C425.091 647.95 425.071 648.31 425.031 648.63C425.011 648.93 424.951 649.36 424.851 649.92L424.461 652.08L423.771 655.47C423.671 655.93 423.621 656.33 423.621 656.67ZM437.029 658.74C436.069 659.98 434.399 660.6 432.019 660.6C430.779 660.6 429.709 660.23 428.809 659.49C427.909 658.73 427.459 657.81 427.459 656.73C427.459 656.13 427.489 655.68 427.549 655.38L429.559 644.7L435.649 644.1L433.459 655.68C433.379 656.12 433.339 656.47 433.339 656.73C433.339 657.89 433.689 658.47 434.389 658.47C435.169 658.47 435.839 657.94 436.399 656.88C436.579 656.54 436.709 656.15 436.789 655.71L438.919 644.7L444.829 644.1L442.609 655.8C442.549 656.1 442.519 656.41 442.519 656.73C442.519 657.05 442.609 657.39 442.789 657.75C442.969 658.09 443.349 658.3 443.929 658.38C443.809 658.86 443.539 659.26 443.119 659.58C442.239 660.26 441.319 660.6 440.359 660.6C439.419 660.6 438.669 660.43 438.109 660.09C437.549 659.75 437.189 659.3 437.029 658.74ZM446.052 658.56L449.772 639L455.862 638.4L454.932 642.99C454.712 643.93 454.462 644.73 454.182 645.39C454.622 644.83 455.322 644.44 456.282 644.22C456.562 644.14 456.872 644.1 457.212 644.1C459.072 644.1 460.512 644.67 461.532 645.81C462.552 646.93 463.062 648.58 463.062 650.76C463.062 653.6 462.252 655.91 460.632 657.69C458.892 659.63 456.442 660.6 453.282 660.6C451.102 660.6 449.192 660.24 447.552 659.52C446.972 659.26 446.472 658.94 446.052 658.56ZM452.082 658.29C452.502 658.65 452.972 658.83 453.492 658.83C454.012 658.83 454.422 658.73 454.722 658.53C455.022 658.33 455.282 658.03 455.502 657.63C456.102 656.55 456.642 654.36 457.122 651.06C457.262 650.12 457.332 649.18 457.332 648.24C457.332 647.3 457.222 646.68 457.002 646.38C456.802 646.08 456.502 645.93 456.102 645.93C454.882 645.93 454.072 647.12 453.672 649.5L452.082 658.29Z"/>
</mask>
<path d="M263.05 660.6C258.65 660.6 256.45 658.53 256.45 654.39C256.45 651.45 257.26 649.03 258.88 647.13C260.6 645.11 262.95 644.1 265.93 644.1C268.09 644.1 269.72 644.6 270.82 645.6C271.92 646.6 272.47 648.15 272.47 650.25C272.47 653.45 271.61 655.98 269.89 657.84C268.21 659.68 265.93 660.6 263.05 660.6ZM263.83 647.55C263.59 648.09 263.37 648.77 263.17 649.59C262.99 650.39 262.78 651.43 262.54 652.71C262.3 653.99 262.18 655.42 262.18 657C262.18 657.52 262.26 657.95 262.42 658.29C262.6 658.63 262.92 658.8 263.38 658.8C263.84 658.8 264.21 658.69 264.49 658.47C264.79 658.25 265.05 657.88 265.27 657.36C265.67 656.44 266.03 655.13 266.35 653.43C266.67 651.71 266.84 650.48 266.86 649.74C266.9 649 266.92 648.36 266.92 647.82C266.92 647.26 266.84 646.8 266.68 646.44C266.52 646.08 266.21 645.9 265.75 645.9C265.31 645.9 264.94 646.04 264.64 646.32C264.34 646.6 264.07 647.01 263.83 647.55ZM295.835 660.6C293.415 660.6 292.205 659.66 292.205 657.78C292.205 656.96 292.375 655.76 292.715 654.18C293.075 652.58 293.315 651.46 293.435 650.82C293.715 649.36 293.855 648.4 293.855 647.94C293.855 646.92 293.475 646.41 292.715 646.41C292.215 646.41 291.725 646.76 291.245 647.46C290.765 648.14 290.415 649.17 290.195 650.55L288.335 660L282.485 660.6L284.105 652.44C284.285 651.54 284.455 650.58 284.615 649.56C284.775 648.54 284.855 647.95 284.855 647.79C284.855 646.87 284.515 646.41 283.835 646.41C283.375 646.41 282.895 646.75 282.395 647.43C281.895 648.11 281.505 649.15 281.225 650.55L279.395 660L273.485 660.6L276.635 644.7L281.525 644.1L281.015 647.13C281.535 646.05 282.275 645.28 283.235 644.82C284.195 644.34 285.425 644.1 286.925 644.1C287.785 644.1 288.495 644.31 289.055 644.73C289.615 645.15 289.985 645.7 290.165 646.38C290.505 645.68 291.105 645.13 291.965 644.73C292.845 644.31 293.815 644.1 294.875 644.1C295.955 644.1 296.755 644.22 297.275 644.46C297.815 644.68 298.245 644.98 298.565 645.36C299.105 646.06 299.375 647.05 299.375 648.33C299.375 649.59 299.105 651.53 298.565 654.15C298.285 655.43 298.145 656.31 298.145 656.79C298.145 657.25 298.275 657.62 298.535 657.9C298.815 658.18 299.155 658.34 299.555 658.38C299.355 659.06 298.905 659.6 298.205 660C297.525 660.4 296.735 660.6 295.835 660.6ZM309.602 645.78C310.682 644.66 312.362 644.1 314.642 644.1C315.902 644.1 316.872 644.44 317.552 645.12C318.252 645.78 318.602 646.73 318.602 647.97C318.602 649.19 318.252 650.24 317.552 651.12C316.872 651.98 315.892 652.59 314.612 652.95C314.712 653.35 314.832 653.76 314.972 654.18L315.392 655.38C315.772 656.4 316.112 657.09 316.412 657.45C316.712 657.81 317.062 658.05 317.462 658.17C317.242 658.99 316.732 659.62 315.932 660.06C315.292 660.42 314.532 660.6 313.652 660.6C311.072 660.6 309.612 658.61 309.272 654.63C309.212 654.07 309.182 653.51 309.182 652.95C310.182 652.67 311.032 652.06 311.732 651.12C312.432 650.18 312.782 649.16 312.782 648.06C312.782 646.96 312.392 646.41 311.612 646.41C311.052 646.41 310.552 646.72 310.112 647.34C309.672 647.96 309.352 648.8 309.152 649.86L307.172 660L301.112 660.6L305.312 639L311.342 638.4L310.652 641.97C310.352 643.65 310.002 644.92 309.602 645.78ZM325.727 660.3C324.787 660.1 324.067 659.96 323.567 659.88C323.087 659.78 322.557 659.73 321.977 659.73C321.417 659.73 320.857 659.83 320.297 660.03C319.997 659.85 319.747 659.58 319.547 659.22C319.367 658.86 319.277 658.4 319.277 657.84C319.277 656.66 319.877 655.62 321.077 654.72L328.697 649.23C327.277 648.83 325.917 648.63 324.617 648.63C323.337 648.63 322.467 649.07 322.007 649.95C321.327 649.15 320.987 648.12 320.987 646.86C320.987 646.02 321.287 645.33 321.887 644.79C322.507 644.23 323.457 643.95 324.737 643.95C325.457 643.95 326.137 644 326.777 644.1C327.437 644.18 328.057 644.26 328.637 644.34L330.257 644.58C330.777 644.66 331.297 644.7 331.817 644.7C332.357 644.7 332.827 644.59 333.227 644.37C333.747 644.85 334.007 645.42 334.007 646.08C334.007 647.12 333.367 648.18 332.087 649.26L324.497 654.93C326.057 655.39 327.237 655.62 328.037 655.62C329.717 655.62 330.917 655.22 331.637 654.42C332.197 655.06 332.477 655.94 332.477 657.06C332.477 658.16 332.117 659.03 331.397 659.67C330.677 660.29 329.667 660.6 328.367 660.6C327.567 660.6 326.687 660.5 325.727 660.3ZM341.746 657C341.746 656.46 341.886 655.51 342.166 654.15L343.756 646.05H341.986L342.106 645.15C344.506 644.43 346.866 643.19 349.186 641.43H350.626L349.906 644.7H352.246L351.976 646.05H349.666L348.136 654.15C347.876 655.39 347.746 656.22 347.746 656.64C347.746 657.6 348.166 658.18 349.006 658.38C348.806 659.06 348.346 659.6 347.626 660C346.906 660.4 346.036 660.6 345.016 660.6C343.996 660.6 343.196 660.28 342.616 659.64C342.036 659 341.746 658.12 341.746 657ZM364.139 654.93C364.639 655.27 364.889 655.82 364.889 656.58C364.889 657.32 364.699 657.93 364.319 658.41C363.939 658.89 363.439 659.29 362.819 659.61C361.539 660.27 360.209 660.6 358.829 660.6C357.449 660.6 356.349 660.45 355.529 660.15C354.729 659.85 354.059 659.42 353.519 658.86C352.459 657.8 351.929 656.3 351.929 654.36C351.929 651.34 352.749 648.91 354.389 647.07C356.149 645.09 358.559 644.1 361.619 644.1C363.519 644.1 364.939 644.5 365.879 645.3C366.579 645.9 366.929 646.69 366.929 647.67C366.929 651.19 363.889 652.95 357.809 652.95C357.729 653.47 357.689 653.95 357.689 654.39C357.689 655.31 357.889 655.95 358.289 656.31C358.709 656.65 359.299 656.82 360.059 656.82C360.819 656.82 361.599 656.65 362.399 656.31C363.219 655.95 363.799 655.49 364.139 654.93ZM358.019 651.66C359.439 651.66 360.559 651.22 361.379 650.34C362.199 649.5 362.609 648.41 362.609 647.07C362.609 646.61 362.519 646.26 362.339 646.02C362.179 645.76 361.929 645.63 361.589 645.63C361.249 645.63 360.929 645.7 360.629 645.84C360.349 645.96 360.059 646.24 359.759 646.68C359.019 647.68 358.439 649.34 358.019 651.66ZM382.685 647.52C382.685 648.36 382.335 649.04 381.635 649.56C380.935 650.08 380.015 650.34 378.875 650.34C378.395 650.34 378.015 650.27 377.735 650.13C377.955 649.61 378.095 649.03 378.155 648.39C378.235 647.73 378.275 647.31 378.275 647.13C378.275 646.29 377.985 645.87 377.405 645.87C377.005 645.87 376.575 646.12 376.115 646.62C375.675 647.12 375.265 647.76 374.885 648.54C374.045 650.34 373.625 652.15 373.625 653.97C373.625 654.97 373.815 655.7 374.195 656.16C374.575 656.6 375.185 656.82 376.025 656.82C377.185 656.82 378.225 656.34 379.145 655.38C379.405 655.08 379.605 654.76 379.745 654.42C380.505 654.82 380.885 655.57 380.885 656.67C380.885 657.79 380.265 658.72 379.025 659.46C377.745 660.22 376.085 660.6 374.045 660.6C369.985 660.6 367.955 658.45 367.955 654.15C367.955 651.01 368.845 648.54 370.625 646.74C372.345 644.98 374.785 644.1 377.945 644.1C381.105 644.1 382.685 645.24 382.685 647.52ZM398.573 656.67C398.573 657.55 399.023 658.12 399.923 658.38C399.703 659.12 399.163 659.69 398.303 660.09C397.583 660.43 396.823 660.6 396.023 660.6C395.243 660.6 394.643 660.49 394.223 660.27C393.823 660.07 393.513 659.8 393.293 659.46C392.933 658.94 392.753 658.19 392.753 657.21C392.753 656.63 392.913 655.54 393.233 653.94L393.653 651.66C393.993 649.92 394.163 648.73 394.163 648.09C394.163 646.97 393.853 646.41 393.233 646.41C392.453 646.41 391.813 646.98 391.313 648.12C391.113 648.56 390.943 649.11 390.803 649.77L388.763 660L382.733 660.6L386.963 639L392.993 638.4L392.753 639.6C392.193 642.68 391.673 644.74 391.193 645.78C392.313 644.66 393.903 644.1 395.963 644.1C398.143 644.1 399.433 644.82 399.833 646.26C399.973 646.72 400.043 647.15 400.043 647.55C400.043 647.95 400.023 648.31 399.983 648.63C399.963 648.93 399.903 649.36 399.803 649.92L399.413 652.08L398.723 655.47C398.623 655.93 398.573 656.33 398.573 656.67ZM423.621 656.67C423.621 657.55 424.071 658.12 424.971 658.38C424.751 659.12 424.211 659.69 423.351 660.09C422.631 660.43 421.871 660.6 421.071 660.6C420.291 660.6 419.691 660.49 419.271 660.27C418.871 660.07 418.561 659.8 418.341 659.46C417.981 658.94 417.801 658.19 417.801 657.21C417.801 656.63 417.961 655.54 418.281 653.94L418.701 651.66C419.041 649.92 419.211 648.73 419.211 648.09C419.211 646.97 418.901 646.41 418.281 646.41C417.501 646.41 416.861 646.98 416.361 648.12C416.161 648.56 415.991 649.11 415.851 649.77L413.811 660L407.781 660.6L412.011 639L418.041 638.4L417.801 639.6C417.241 642.68 416.721 644.74 416.241 645.78C417.361 644.66 418.951 644.1 421.011 644.1C423.191 644.1 424.481 644.82 424.881 646.26C425.021 646.72 425.091 647.15 425.091 647.55C425.091 647.95 425.071 648.31 425.031 648.63C425.011 648.93 424.951 649.36 424.851 649.92L424.461 652.08L423.771 655.47C423.671 655.93 423.621 656.33 423.621 656.67ZM437.029 658.74C436.069 659.98 434.399 660.6 432.019 660.6C430.779 660.6 429.709 660.23 428.809 659.49C427.909 658.73 427.459 657.81 427.459 656.73C427.459 656.13 427.489 655.68 427.549 655.38L429.559 644.7L435.649 644.1L433.459 655.68C433.379 656.12 433.339 656.47 433.339 656.73C433.339 657.89 433.689 658.47 434.389 658.47C435.169 658.47 435.839 657.94 436.399 656.88C436.579 656.54 436.709 656.15 436.789 655.71L438.919 644.7L444.829 644.1L442.609 655.8C442.549 656.1 442.519 656.41 442.519 656.73C442.519 657.05 442.609 657.39 442.789 657.75C442.969 658.09 443.349 658.3 443.929 658.38C443.809 658.86 443.539 659.26 443.119 659.58C442.239 660.26 441.319 660.6 440.359 660.6C439.419 660.6 438.669 660.43 438.109 660.09C437.549 659.75 437.189 659.3 437.029 658.74ZM446.052 658.56L449.772 639L455.862 638.4L454.932 642.99C454.712 643.93 454.462 644.73 454.182 645.39C454.622 644.83 455.322 644.44 456.282 644.22C456.562 644.14 456.872 644.1 457.212 644.1C459.072 644.1 460.512 644.67 461.532 645.81C462.552 646.93 463.062 648.58 463.062 650.76C463.062 653.6 462.252 655.91 460.632 657.69C458.892 659.63 456.442 660.6 453.282 660.6C451.102 660.6 449.192 660.24 447.552 659.52C446.972 659.26 446.472 658.94 446.052 658.56ZM452.082 658.29C452.502 658.65 452.972 658.83 453.492 658.83C454.012 658.83 454.422 658.73 454.722 658.53C455.022 658.33 455.282 658.03 455.502 657.63C456.102 656.55 456.642 654.36 457.122 651.06C457.262 650.12 457.332 649.18 457.332 648.24C457.332 647.3 457.222 646.68 457.002 646.38C456.802 646.08 456.502 645.93 456.102 645.93C454.882 645.93 454.072 647.12 453.672 649.5L452.082 658.29Z" fill="#0000FF"/>
<path d="M258.88 647.13L259.641 647.779L259.641 647.778L258.88 647.13ZM270.82 645.6L271.493 644.86L270.82 645.6ZM269.89 657.84L269.156 657.161L269.152 657.166L269.89 657.84ZM263.83 647.55L264.744 647.956L263.83 647.55ZM263.17 649.59L262.198 649.353L262.196 649.362L262.194 649.37L263.17 649.59ZM262.54 652.71L261.557 652.526L261.557 652.526L262.54 652.71ZM262.42 658.29L261.515 658.716L261.525 658.737L261.536 658.758L262.42 658.29ZM264.49 658.47L263.899 657.664L263.885 657.673L263.872 657.684L264.49 658.47ZM265.27 657.36L264.353 656.961L264.349 656.97L265.27 657.36ZM266.35 653.43L267.333 653.615L267.333 653.613L266.35 653.43ZM266.86 649.74L265.861 649.686L265.861 649.699L265.86 649.713L266.86 649.74ZM266.68 646.44L265.766 646.846L265.766 646.846L266.68 646.44ZM264.64 646.32L265.322 647.051L265.322 647.051L264.64 646.32ZM263.05 659.6C260.989 659.6 259.63 659.114 258.785 658.319C257.952 657.535 257.45 656.29 257.45 654.39H255.45C255.45 656.63 256.048 658.49 257.415 659.776C258.77 661.051 260.711 661.6 263.05 661.6V659.6ZM257.45 654.39C257.45 651.643 258.202 649.467 259.641 647.779L258.119 646.481C256.318 648.593 255.45 651.257 255.45 654.39H257.45ZM259.641 647.778C261.147 646.011 263.203 645.1 265.93 645.1V643.1C262.697 643.1 260.053 644.209 258.119 646.482L259.641 647.778ZM265.93 645.1C267.952 645.1 269.3 645.569 270.147 646.34L271.493 644.86C270.14 643.631 268.228 643.1 265.93 643.1V645.1ZM270.147 646.34C270.964 647.083 271.47 648.312 271.47 650.25H273.47C273.47 647.988 272.876 646.117 271.493 644.86L270.147 646.34ZM271.47 650.25C271.47 653.267 270.663 655.531 269.156 657.161L270.624 658.519C272.557 656.429 273.47 653.633 273.47 650.25H271.47ZM269.152 657.166C267.691 658.765 265.697 659.6 263.05 659.6V661.6C266.163 661.6 268.729 660.595 270.628 658.514L269.152 657.166ZM262.916 647.144C262.644 647.756 262.407 648.497 262.198 649.353L264.142 649.827C264.333 649.043 264.536 648.424 264.744 647.956L262.916 647.144ZM262.194 649.37C262.011 650.187 261.798 651.24 261.557 652.526L263.523 652.894C263.762 651.62 263.969 650.593 264.146 649.81L262.194 649.37ZM261.557 652.526C261.304 653.878 261.18 655.371 261.18 657H263.18C263.18 655.469 263.296 654.102 263.523 652.894L261.557 652.526ZM261.18 657C261.18 657.614 261.273 658.202 261.515 658.716L263.325 657.864C263.247 657.698 263.18 657.426 263.18 657H261.18ZM261.536 658.758C261.927 659.496 262.637 659.8 263.38 659.8V657.8C263.271 657.8 263.246 657.78 263.264 657.789C263.273 657.794 263.285 657.803 263.295 657.813C263.305 657.823 263.307 657.829 263.304 657.822L261.536 658.758ZM263.38 659.8C263.998 659.8 264.606 659.651 265.108 659.256L263.872 657.684C263.814 657.729 263.682 657.8 263.38 657.8V659.8ZM265.081 659.276C265.583 658.908 265.934 658.356 266.191 657.75L264.349 656.97C264.166 657.404 263.997 657.592 263.899 657.664L265.081 659.276ZM266.187 657.759C266.631 656.738 267.007 655.344 267.333 653.615L265.367 653.245C265.053 654.916 264.709 656.142 264.353 656.961L266.187 657.759ZM267.333 653.613C267.653 651.892 267.837 650.593 267.86 649.767L265.86 649.713C265.843 650.367 265.687 651.528 265.367 653.247L267.333 653.613ZM267.859 649.794C267.899 649.042 267.92 648.383 267.92 647.82H265.92C265.92 648.337 265.901 648.958 265.861 649.686L267.859 649.794ZM267.92 647.82C267.92 647.175 267.829 646.564 267.594 646.034L265.766 646.846C265.851 647.036 265.92 647.345 265.92 647.82H267.92ZM267.594 646.034C267.437 645.681 267.185 645.376 266.83 645.17C266.485 644.97 266.107 644.9 265.75 644.9V646.9C265.853 646.9 265.86 646.92 265.825 646.9C265.817 646.895 265.809 646.889 265.8 646.882C265.791 646.875 265.784 646.867 265.778 646.86C265.765 646.846 265.763 646.838 265.766 646.846L267.594 646.034ZM265.75 644.9C265.077 644.9 264.457 645.123 263.958 645.589L265.322 647.051C265.423 646.957 265.543 646.9 265.75 646.9V644.9ZM263.958 645.589C263.526 645.992 263.189 646.531 262.916 647.144L264.744 647.956C264.951 647.489 265.154 647.208 265.322 647.051L263.958 645.589ZM292.715 654.18L291.739 653.96L291.737 653.97L292.715 654.18ZM293.435 650.82L292.452 650.632L292.452 650.636L293.435 650.82ZM291.245 647.46L292.062 648.037L292.069 648.026L291.245 647.46ZM290.195 650.55L291.176 650.743L291.179 650.725L291.182 650.707L290.195 650.55ZM288.335 660L288.437 660.995L289.173 660.919L289.316 660.193L288.335 660ZM282.485 660.6L281.504 660.405L281.24 661.733L282.587 661.595L282.485 660.6ZM284.105 652.44L283.124 652.244L283.124 652.245L284.105 652.44ZM284.615 649.56L283.627 649.405L283.627 649.405L284.615 649.56ZM282.395 647.43L281.589 646.838L281.589 646.838L282.395 647.43ZM281.225 650.55L280.244 650.354L280.243 650.36L281.225 650.55ZM279.395 660L279.496 660.995L280.235 660.92L280.376 660.19L279.395 660ZM273.485 660.6L272.504 660.406L272.241 661.731L273.586 661.595L273.485 660.6ZM276.635 644.7L276.513 643.707L275.794 643.796L275.654 644.506L276.635 644.7ZM281.525 644.1L282.511 644.266L282.733 642.944L281.403 643.107L281.525 644.1ZM281.015 647.13L280.028 646.964L281.916 647.564L281.015 647.13ZM283.235 644.82L283.667 645.722L283.674 645.718L283.682 645.714L283.235 644.82ZM289.055 644.73L288.455 645.53L288.455 645.53L289.055 644.73ZM290.165 646.38L289.198 646.636L289.887 649.24L291.064 646.817L290.165 646.38ZM291.965 644.73L292.386 645.637L292.395 645.632L291.965 644.73ZM297.275 644.46L296.856 645.368L296.876 645.378L296.897 645.386L297.275 644.46ZM298.565 645.36L299.356 644.749L299.343 644.732L299.33 644.716L298.565 645.36ZM298.565 654.15L299.542 654.364L299.544 654.352L298.565 654.15ZM298.535 657.9L297.802 658.58L297.814 658.594L297.828 658.607L298.535 657.9ZM299.555 658.38L300.514 658.662L300.854 657.505L299.654 657.385L299.555 658.38ZM298.205 660L297.708 659.132L297.698 659.138L298.205 660ZM295.835 659.6C294.726 659.6 294.079 659.38 293.726 659.105C293.42 658.868 293.205 658.489 293.205 657.78H291.205C291.205 658.951 291.594 659.982 292.499 660.685C293.355 661.35 294.523 661.6 295.835 661.6V659.6ZM293.205 657.78C293.205 657.07 293.356 655.954 293.692 654.39L291.737 653.97C291.394 655.566 291.205 656.85 291.205 657.78H293.205ZM293.69 654.4C294.05 652.8 294.294 651.664 294.417 651.004L292.452 650.636C292.335 651.256 292.099 652.36 291.739 653.96L293.69 654.4ZM294.417 651.008C294.693 649.569 294.855 648.513 294.855 647.94H292.855C292.855 648.287 292.737 649.151 292.453 650.632L294.417 651.008ZM294.855 647.94C294.855 647.335 294.747 646.699 294.371 646.195C293.955 645.636 293.341 645.41 292.715 645.41V647.41C292.794 647.41 292.816 647.423 292.805 647.418C292.789 647.411 292.773 647.397 292.768 647.39C292.767 647.389 292.79 647.419 292.813 647.512C292.836 647.605 292.855 647.744 292.855 647.94H294.855ZM292.715 645.41C291.708 645.41 290.957 646.112 290.42 646.894L292.069 648.026C292.268 647.736 292.434 647.572 292.553 647.486C292.664 647.407 292.713 647.41 292.715 647.41V645.41ZM290.428 646.883C289.819 647.746 289.437 648.951 289.207 650.393L291.182 650.707C291.392 649.389 291.71 648.534 292.062 648.037L290.428 646.883ZM289.213 650.357L287.353 659.807L289.316 660.193L291.176 650.743L289.213 650.357ZM288.233 659.005L282.383 659.605L282.587 661.595L288.437 660.995L288.233 659.005ZM283.465 660.795L285.085 652.635L283.124 652.245L281.504 660.405L283.465 660.795ZM285.085 652.636C285.268 651.721 285.441 650.747 285.603 649.715L283.627 649.405C283.469 650.413 283.301 651.359 283.124 652.244L285.085 652.636ZM285.603 649.715C285.683 649.202 285.744 648.792 285.786 648.487C285.823 648.214 285.855 647.952 285.855 647.79H283.855C283.855 647.788 283.847 647.901 283.804 648.218C283.765 648.503 283.706 648.898 283.627 649.405L285.603 649.715ZM285.855 647.79C285.855 647.236 285.757 646.639 285.404 646.161C285.008 645.626 284.424 645.41 283.835 645.41V647.41C283.893 647.41 283.896 647.42 283.87 647.408C283.838 647.393 283.81 647.369 283.795 647.349C283.785 647.336 283.802 647.351 283.82 647.425C283.838 647.501 283.855 647.618 283.855 647.79H285.855ZM283.835 645.41C282.869 645.41 282.128 646.105 281.589 646.838L283.2 648.022C283.412 647.734 283.584 647.569 283.708 647.481C283.826 647.397 283.863 647.41 283.835 647.41V645.41ZM281.589 646.838C280.962 647.69 280.535 648.897 280.244 650.354L282.205 650.746C282.474 649.403 282.827 648.53 283.2 648.022L281.589 646.838ZM280.243 650.36L278.413 659.81L280.376 660.19L282.206 650.74L280.243 650.36ZM279.294 659.005L273.384 659.605L273.586 661.595L279.496 660.995L279.294 659.005ZM274.466 660.794L277.616 644.894L275.654 644.506L272.504 660.406L274.466 660.794ZM276.756 645.693L281.646 645.093L281.403 643.107L276.513 643.707L276.756 645.693ZM280.538 643.934L280.028 646.964L282.001 647.296L282.511 644.266L280.538 643.934ZM281.916 647.564C282.35 646.661 282.937 646.071 283.667 645.722L282.802 643.918C281.612 644.489 280.719 645.439 280.114 646.696L281.916 647.564ZM283.682 645.714C284.459 645.326 285.522 645.1 286.925 645.1V643.1C285.327 643.1 283.93 643.354 282.787 643.926L283.682 645.714ZM286.925 645.1C287.619 645.1 288.104 645.267 288.455 645.53L289.655 643.93C288.885 643.353 287.95 643.1 286.925 643.1V645.1ZM288.455 645.53C288.834 645.814 289.075 646.172 289.198 646.636L291.131 646.124C290.894 645.228 290.396 644.486 289.655 643.93L288.455 645.53ZM291.064 646.817C291.283 646.366 291.688 645.962 292.386 645.637L291.543 643.823C290.522 644.298 289.726 644.994 289.265 645.943L291.064 646.817ZM292.395 645.632C293.129 645.282 293.95 645.1 294.875 645.1V643.1C293.679 643.1 292.56 643.338 291.534 643.828L292.395 645.632ZM294.875 645.1C295.916 645.1 296.538 645.221 296.856 645.368L297.694 643.552C296.972 643.219 295.993 643.1 294.875 643.1V645.1ZM296.897 645.386C297.313 645.556 297.601 645.768 297.8 646.004L299.33 644.716C298.888 644.192 298.316 643.804 297.652 643.534L296.897 645.386ZM297.773 645.971C298.129 646.433 298.375 647.175 298.375 648.33H300.375C300.375 646.925 300.08 645.687 299.356 644.749L297.773 645.971ZM298.375 648.33C298.375 649.482 298.123 651.338 297.585 653.948L299.544 654.352C300.086 651.722 300.375 649.698 300.375 648.33H298.375ZM297.588 653.936C297.31 655.206 297.145 656.187 297.145 656.79H299.145C299.145 656.433 299.259 655.654 299.542 654.364L297.588 653.936ZM297.145 656.79C297.145 657.448 297.336 658.079 297.802 658.58L299.267 657.22C299.213 657.161 299.145 657.052 299.145 656.79H297.145ZM297.828 658.607C298.273 659.053 298.829 659.312 299.455 659.375L299.654 657.385C299.48 657.368 299.356 657.307 299.242 657.193L297.828 658.607ZM298.595 658.098C298.478 658.495 298.217 658.841 297.708 659.132L298.701 660.868C299.592 660.359 300.231 659.625 300.514 658.662L298.595 658.098ZM297.698 659.138C297.192 659.436 296.582 659.6 295.835 659.6V661.6C296.887 661.6 297.857 661.364 298.712 660.862L297.698 659.138ZM309.602 645.78L308.695 645.358L310.321 646.474L309.602 645.78ZM317.552 645.12L316.844 645.827L316.855 645.838L316.866 645.848L317.552 645.12ZM317.552 651.12L316.769 650.497L316.767 650.5L317.552 651.12ZM314.612 652.95L314.341 651.987L313.406 652.25L313.641 653.193L314.612 652.95ZM314.972 654.18L314.023 654.496L314.025 654.503L314.028 654.51L314.972 654.18ZM315.392 655.38L314.448 655.71L314.451 655.72L314.454 655.729L315.392 655.38ZM316.412 657.45L317.18 656.81L317.18 656.81L316.412 657.45ZM317.462 658.17L318.427 658.429L318.679 657.491L317.749 657.212L317.462 658.17ZM315.932 660.06L315.45 659.184L315.441 659.188L315.932 660.06ZM309.272 654.63L310.268 654.545L310.267 654.534L310.266 654.523L309.272 654.63ZM309.182 652.95L308.912 651.987L308.182 652.192V652.95H309.182ZM311.732 651.12L312.534 651.717L312.534 651.717L311.732 651.12ZM310.112 647.34L310.927 647.919L310.927 647.919L310.112 647.34ZM309.152 649.86L310.133 650.052L310.134 650.045L309.152 649.86ZM307.172 660L307.27 660.995L308.01 660.922L308.153 660.192L307.172 660ZM301.112 660.6L300.13 660.409L299.874 661.727L301.21 661.595L301.112 660.6ZM305.312 639L305.213 638.005L304.472 638.079L304.33 638.809L305.312 639ZM311.342 638.4L312.323 638.59L312.578 637.272L311.243 637.405L311.342 638.4ZM310.652 641.97L309.67 641.78L309.668 641.787L309.667 641.794L310.652 641.97ZM310.321 646.474C311.14 645.625 312.506 645.1 314.642 645.1V643.1C312.217 643.1 310.223 643.695 308.882 645.086L310.321 646.474ZM314.642 645.1C315.722 645.1 316.405 645.388 316.844 645.827L318.259 644.413C317.338 643.492 316.081 643.1 314.642 643.1V645.1ZM316.866 645.848C317.311 646.268 317.602 646.921 317.602 647.97H319.602C319.602 646.539 319.192 645.292 318.238 644.392L316.866 645.848ZM317.602 647.97C317.602 648.984 317.316 649.81 316.769 650.497L318.334 651.743C319.187 650.67 319.602 649.396 319.602 647.97H317.602ZM316.767 650.5C316.244 651.162 315.462 651.672 314.341 651.987L314.882 653.913C316.321 653.508 317.499 652.798 318.336 651.74L316.767 650.5ZM313.641 653.193C313.748 653.619 313.875 654.054 314.023 654.496L315.92 653.864C315.788 653.466 315.675 653.081 315.582 652.707L313.641 653.193ZM314.028 654.51L314.448 655.71L316.335 655.05L315.915 653.85L314.028 654.51ZM314.454 655.729C314.836 656.752 315.224 657.587 315.643 658.09L317.18 656.81C316.999 656.593 316.708 656.048 316.329 655.031L314.454 655.729ZM315.643 658.09C316.053 658.582 316.564 658.945 317.174 659.128L317.749 657.212C317.559 657.155 317.37 657.038 317.18 656.81L315.643 658.09ZM316.496 657.911C316.352 658.447 316.031 658.864 315.45 659.184L316.413 660.936C317.432 660.376 318.131 659.533 318.427 658.429L316.496 657.911ZM315.441 659.188C314.978 659.449 314.394 659.6 313.652 659.6V661.6C314.669 661.6 315.605 661.391 316.422 660.932L315.441 659.188ZM313.652 659.6C312.663 659.6 311.96 659.241 311.428 658.516C310.854 657.734 310.431 656.454 310.268 654.545L308.275 654.715C308.452 656.786 308.929 658.491 309.815 659.699C310.743 660.964 312.06 661.6 313.652 661.6V659.6ZM310.266 654.523C310.21 653.999 310.182 653.474 310.182 652.95H308.182C308.182 653.546 308.213 654.141 308.277 654.737L310.266 654.523ZM309.451 653.913C310.691 653.566 311.719 652.811 312.534 651.717L310.93 650.523C310.344 651.309 309.672 651.774 308.912 651.987L309.451 653.913ZM312.534 651.717C313.353 650.617 313.782 649.39 313.782 648.06H311.782C311.782 648.93 311.51 649.743 310.93 650.523L312.534 651.717ZM313.782 648.06C313.782 647.422 313.674 646.765 313.305 646.244C312.891 645.66 312.267 645.41 311.612 645.41V647.41C311.689 647.41 311.71 647.424 311.698 647.418C311.681 647.41 311.671 647.398 311.673 647.401C311.694 647.43 311.782 647.598 311.782 648.06H313.782ZM311.612 645.41C310.619 645.41 309.851 645.98 309.296 646.761L310.927 647.919C311.253 647.46 311.484 647.41 311.612 647.41V645.41ZM309.296 646.761C308.745 647.537 308.385 648.528 308.169 649.675L310.134 650.045C310.318 649.072 310.598 648.383 310.927 647.919L309.296 646.761ZM308.17 649.668L306.19 659.808L308.153 660.192L310.133 650.052L308.17 649.668ZM307.073 659.005L301.013 659.605L301.21 661.595L307.27 660.995L307.073 659.005ZM302.093 660.791L306.293 639.191L304.33 638.809L300.13 660.409L302.093 660.791ZM305.411 639.995L311.441 639.395L311.243 637.405L305.213 638.005L305.411 639.995ZM310.36 638.21L309.67 641.78L311.633 642.16L312.323 638.59L310.36 638.21ZM309.667 641.794C309.372 643.445 309.04 644.615 308.695 645.358L310.508 646.202C310.963 645.225 311.331 643.855 311.636 642.146L309.667 641.794ZM325.727 660.3L325.519 661.278L325.523 661.279L325.727 660.3ZM323.567 659.88L323.363 660.859L323.386 660.864L323.409 660.867L323.567 659.88ZM320.297 660.03L319.783 660.887L320.188 661.131L320.633 660.972L320.297 660.03ZM319.547 659.22L318.653 659.667L318.662 659.687L318.673 659.706L319.547 659.22ZM321.077 654.72L320.492 653.909L320.485 653.914L320.477 653.92L321.077 654.72ZM328.697 649.23L329.282 650.041L330.964 648.83L328.968 648.267L328.697 649.23ZM322.007 649.95L321.245 650.598L322.206 651.728L322.893 650.413L322.007 649.95ZM321.887 644.79L322.556 645.533L322.557 645.532L321.887 644.79ZM326.777 644.1L326.623 645.088L326.64 645.091L326.657 645.093L326.777 644.1ZM328.637 644.34L328.784 643.351L328.774 643.349L328.637 644.34ZM330.257 644.58L330.409 643.592L330.404 643.591L330.257 644.58ZM333.227 644.37L333.905 643.635L333.376 643.147L332.745 643.494L333.227 644.37ZM332.087 649.26L332.686 650.061L332.709 650.043L332.732 650.024L332.087 649.26ZM324.497 654.93L323.899 654.129L322.298 655.324L324.214 655.889L324.497 654.93ZM331.637 654.42L332.39 653.761L331.648 652.913L330.894 653.751L331.637 654.42ZM331.397 659.67L332.05 660.428L332.056 660.423L332.061 660.417L331.397 659.67ZM325.935 659.322C324.99 659.121 324.251 658.977 323.725 658.893L323.409 660.867C323.883 660.943 324.584 661.079 325.519 661.278L325.935 659.322ZM323.771 658.901C323.213 658.785 322.613 658.73 321.977 658.73V660.73C322.501 660.73 322.961 660.775 323.363 660.859L323.771 658.901ZM321.977 658.73C321.295 658.73 320.622 658.852 319.961 659.088L320.633 660.972C321.092 660.808 321.539 660.73 321.977 660.73V658.73ZM320.812 659.173C320.687 659.098 320.551 658.968 320.421 658.734L318.673 659.706C318.943 660.192 319.307 660.602 319.783 660.887L320.812 659.173ZM320.441 658.773C320.353 658.595 320.277 658.302 320.277 657.84H318.277C318.277 658.498 318.381 659.125 318.653 659.667L320.441 658.773ZM320.277 657.84C320.277 657.058 320.654 656.288 321.677 655.52L320.477 653.92C319.101 654.952 318.277 656.262 318.277 657.84H320.277ZM321.662 655.531L329.282 650.041L328.112 648.419L320.492 653.909L321.662 655.531ZM328.968 648.267C327.472 647.846 326.02 647.63 324.617 647.63V649.63C325.814 649.63 327.082 649.814 328.426 650.193L328.968 648.267ZM324.617 647.63C323.091 647.63 321.805 648.178 321.121 649.487L322.893 650.413C323.129 649.962 323.583 649.63 324.617 649.63V647.63ZM322.769 649.302C322.272 648.718 321.987 647.932 321.987 646.86H319.987C319.987 648.308 320.382 649.582 321.245 650.598L322.769 649.302ZM321.987 646.86C321.987 646.29 322.176 645.875 322.556 645.533L321.218 644.047C320.398 644.785 319.987 645.75 319.987 646.86H321.987ZM322.557 645.532C322.917 645.207 323.577 644.95 324.737 644.95V642.95C323.337 642.95 322.097 643.253 321.217 644.048L322.557 645.532ZM324.737 644.95C325.411 644.95 326.039 644.997 326.623 645.088L326.931 643.112C326.235 643.003 325.503 642.95 324.737 642.95V644.95ZM326.657 645.093C327.312 645.172 327.926 645.251 328.5 645.331L328.774 643.349C328.188 643.269 327.562 643.188 326.897 643.107L326.657 645.093ZM328.49 645.329L330.11 645.569L330.404 643.591L328.784 643.351L328.49 645.329ZM330.105 645.568C330.675 645.656 331.246 645.7 331.817 645.7V643.7C331.349 643.7 330.879 643.664 330.409 643.592L330.105 645.568ZM331.817 645.7C332.495 645.7 333.136 645.561 333.709 645.246L332.745 643.494C332.518 643.619 332.219 643.7 331.817 643.7V645.7ZM332.549 645.105C332.88 645.411 333.007 645.721 333.007 646.08H335.007C335.007 645.119 334.614 644.289 333.905 643.635L332.549 645.105ZM333.007 646.08C333.007 646.685 332.632 647.491 331.442 648.496L332.732 650.024C334.102 648.869 335.007 647.555 335.007 646.08H333.007ZM331.489 648.459L323.899 654.129L325.096 655.731L332.686 650.061L331.489 648.459ZM324.214 655.889C325.792 656.354 327.086 656.62 328.037 656.62V654.62C327.388 654.62 326.322 654.426 324.78 653.971L324.214 655.889ZM328.037 656.62C329.843 656.62 331.386 656.194 332.38 655.089L330.894 653.751C330.448 654.246 329.591 654.62 328.037 654.62V656.62ZM330.884 655.079C331.24 655.485 331.477 656.104 331.477 657.06H333.477C333.477 655.776 333.154 654.635 332.39 653.761L330.884 655.079ZM331.477 657.06C331.477 657.919 331.208 658.5 330.733 658.923L332.061 660.417C333.026 659.56 333.477 658.401 333.477 657.06H331.477ZM330.745 658.912C330.263 659.327 329.516 659.6 328.367 659.6V661.6C329.818 661.6 331.091 661.253 332.05 660.428L330.745 658.912ZM328.367 659.6C327.649 659.6 326.838 659.51 325.931 659.321L325.523 661.279C326.536 661.49 327.485 661.6 328.367 661.6V659.6ZM342.166 654.15L343.145 654.352L343.147 654.343L342.166 654.15ZM343.756 646.05L344.737 646.243L344.971 645.05H343.756V646.05ZM341.986 646.05L340.995 645.918L340.844 647.05H341.986V646.05ZM342.106 645.15L341.819 644.192L341.2 644.378L341.115 645.018L342.106 645.15ZM349.186 641.43V640.43H348.849L348.581 640.633L349.186 641.43ZM350.626 641.43L351.602 641.645L351.87 640.43H350.626V641.43ZM349.906 644.7L348.929 644.485L348.662 645.7H349.906V644.7ZM352.246 644.7L353.226 644.896L353.466 643.7H352.246V644.7ZM351.976 646.05V647.05H352.796L352.956 646.246L351.976 646.05ZM349.666 646.05V645.05H348.837L348.683 645.864L349.666 646.05ZM348.136 654.15L349.115 654.355L349.117 654.345L349.118 654.336L348.136 654.15ZM349.006 658.38L349.965 658.662L350.263 657.651L349.237 657.407L349.006 658.38ZM347.626 660L348.112 660.874L348.112 660.874L347.626 660ZM342.616 659.64L341.875 660.312L341.875 660.312L342.616 659.64ZM342.746 657C342.746 656.575 342.864 655.717 343.145 654.352L341.186 653.948C340.908 655.303 340.746 656.345 340.746 657H342.746ZM343.147 654.343L344.737 646.243L342.775 645.857L341.185 653.957L343.147 654.343ZM343.756 645.05H341.986V647.05H343.756V645.05ZM342.977 646.182L343.097 645.282L341.115 645.018L340.995 645.918L342.977 646.182ZM342.393 646.108C344.925 645.348 347.39 644.047 349.79 642.227L348.581 640.633C346.341 642.333 344.087 643.512 341.819 644.192L342.393 646.108ZM349.186 642.43H350.626V640.43H349.186V642.43ZM349.649 641.215L348.929 644.485L350.882 644.915L351.602 641.645L349.649 641.215ZM349.906 645.7H352.246V643.7H349.906V645.7ZM351.265 644.504L350.995 645.854L352.956 646.246L353.226 644.896L351.265 644.504ZM351.976 645.05H349.666V647.05H351.976V645.05ZM348.683 645.864L347.153 653.964L349.118 654.336L350.648 646.236L348.683 645.864ZM347.157 653.945C346.901 655.167 346.746 656.099 346.746 656.64H348.746C348.746 656.341 348.851 655.613 349.115 654.355L347.157 653.945ZM346.746 656.64C346.746 657.26 346.881 657.871 347.251 658.382C347.629 658.903 348.172 659.209 348.774 659.353L349.237 657.407C349 657.351 348.913 657.267 348.871 657.208C348.82 657.139 348.746 656.98 348.746 656.64H346.746ZM348.046 658.098C347.933 658.485 347.671 658.831 347.14 659.126L348.112 660.874C349.021 660.369 349.679 659.635 349.965 658.662L348.046 658.098ZM347.14 659.126C346.6 659.426 345.906 659.6 345.016 659.6V661.6C346.166 661.6 347.211 661.374 348.112 660.874L347.14 659.126ZM345.016 659.6C344.222 659.6 343.713 659.361 343.357 658.968L341.875 660.312C342.679 661.199 343.769 661.6 345.016 661.6V659.6ZM343.357 658.968C342.988 658.562 342.746 657.947 342.746 657H340.746C340.746 658.293 341.084 659.438 341.875 660.312L343.357 658.968ZM364.139 654.93L364.701 654.103L363.83 653.511L363.284 654.411L364.139 654.93ZM364.319 658.41L365.103 659.031L365.103 659.031L364.319 658.41ZM362.819 659.61L363.277 660.499L363.277 660.499L362.819 659.61ZM355.529 660.15L355.177 661.086L355.185 661.089L355.529 660.15ZM353.519 658.86L354.238 658.166L354.232 658.159L354.226 658.153L353.519 658.86ZM354.389 647.07L355.135 647.735L355.136 647.734L354.389 647.07ZM365.879 645.3L366.529 644.541L366.527 644.538L365.879 645.3ZM357.809 652.95V651.95H356.951L356.82 652.798L357.809 652.95ZM358.289 656.31L357.62 657.053L357.639 657.071L357.659 657.087L358.289 656.31ZM362.399 656.31L362.79 657.23L362.801 657.226L362.399 656.31ZM358.019 651.66L357.035 651.482L356.821 652.66H358.019V651.66ZM361.379 650.34L360.663 649.641L360.655 649.65L360.647 649.658L361.379 650.34ZM362.339 646.02L361.487 646.544L361.511 646.583L361.539 646.62L362.339 646.02ZM360.629 645.84L361.022 646.759L361.037 646.753L361.051 646.746L360.629 645.84ZM359.759 646.68L360.562 647.275L360.574 647.259L360.585 647.243L359.759 646.68ZM363.576 655.757C363.732 655.863 363.889 656.055 363.889 656.58H365.889C365.889 655.585 365.545 654.677 364.701 654.103L363.576 655.757ZM363.889 656.58C363.889 657.143 363.747 657.521 363.534 657.789L365.103 659.031C365.65 658.339 365.889 657.497 365.889 656.58H363.889ZM363.534 657.789C363.254 658.143 362.871 658.457 362.36 658.721L363.277 660.499C364.006 660.123 364.623 659.637 365.103 659.031L363.534 657.789ZM362.36 658.721C361.216 659.311 360.042 659.6 358.829 659.6V661.6C360.375 661.6 361.861 661.229 363.277 660.499L362.36 658.721ZM358.829 659.6C357.506 659.6 356.537 659.454 355.872 659.211L355.185 661.089C356.16 661.446 357.391 661.6 358.829 661.6V659.6ZM355.88 659.214C355.205 658.961 354.665 658.609 354.238 658.166L352.799 659.554C353.452 660.231 354.252 660.739 355.177 661.086L355.88 659.214ZM354.226 658.153C353.404 657.331 352.929 656.116 352.929 654.36H350.929C350.929 656.484 351.513 658.269 352.811 659.567L354.226 658.153ZM352.929 654.36C352.929 651.528 353.693 649.353 355.135 647.735L353.642 646.405C351.804 648.467 350.929 651.152 350.929 654.36H352.929ZM355.136 647.734C356.676 646.002 358.795 645.1 361.619 645.1V643.1C358.322 643.1 355.621 644.178 353.641 646.406L355.136 647.734ZM361.619 645.1C363.403 645.1 364.547 645.48 365.23 646.062L366.527 644.538C365.33 643.52 363.634 643.1 361.619 643.1V645.1ZM365.228 646.059C365.691 646.456 365.929 646.961 365.929 647.67H367.929C367.929 646.419 367.466 645.344 366.529 644.541L365.228 646.059ZM365.929 647.67C365.929 649.074 365.358 650.064 364.147 650.765C362.854 651.513 360.785 651.95 357.809 651.95V653.95C360.912 653.95 363.403 653.507 365.15 652.495C366.979 651.436 367.929 649.786 367.929 647.67H365.929ZM356.82 652.798C356.734 653.359 356.689 653.89 356.689 654.39H358.689C358.689 654.01 358.723 653.581 358.797 653.102L356.82 652.798ZM356.689 654.39C356.689 655.402 356.9 656.405 357.62 657.053L358.957 655.567C358.877 655.495 358.689 655.218 358.689 654.39H356.689ZM357.659 657.087C358.317 657.62 359.161 657.82 360.059 657.82V655.82C359.436 655.82 359.1 655.68 358.918 655.533L357.659 657.087ZM360.059 657.82C360.971 657.82 361.884 657.615 362.79 657.23L362.007 655.39C361.313 655.685 360.666 655.82 360.059 655.82V657.82ZM362.801 657.226C363.741 656.813 364.514 656.238 364.993 655.449L363.284 654.411C363.083 654.742 362.696 655.087 361.997 655.394L362.801 657.226ZM358.019 652.66C359.661 652.66 361.067 652.141 362.11 651.022L360.647 649.658C360.05 650.299 359.216 650.66 358.019 650.66V652.66ZM362.094 651.039C363.123 649.985 363.609 648.631 363.609 647.07H361.609C361.609 648.189 361.274 649.015 360.663 649.641L362.094 651.039ZM363.609 647.07C363.609 646.502 363.501 645.904 363.139 645.42L361.539 646.62C361.536 646.616 361.609 646.718 361.609 647.07H363.609ZM363.19 645.496C362.825 644.902 362.229 644.63 361.589 644.63V646.63C361.631 646.63 361.614 646.638 361.57 646.615C361.549 646.604 361.529 646.59 361.512 646.574C361.496 646.559 361.489 646.547 361.487 646.544L363.19 645.496ZM361.589 644.63C361.106 644.63 360.642 644.73 360.206 644.934L361.051 646.746C361.215 646.67 361.391 646.63 361.589 646.63V644.63ZM360.235 644.921C359.692 645.153 359.269 645.622 358.932 646.117L360.585 647.243C360.708 647.063 360.812 646.94 360.896 646.859C360.98 646.778 361.024 646.759 361.022 646.759L360.235 644.921ZM358.955 646.085C358.074 647.275 357.462 649.123 357.035 651.482L359.003 651.838C359.415 649.557 359.963 648.085 360.562 647.275L358.955 646.085ZM377.735 650.13L376.814 649.74L376.449 650.605L377.288 651.024L377.735 650.13ZM378.155 648.39L377.163 648.27L377.161 648.283L377.16 648.297L378.155 648.39ZM376.115 646.62L375.379 645.943L375.372 645.951L375.365 645.959L376.115 646.62ZM374.885 648.54L373.986 648.102L373.983 648.11L373.979 648.117L374.885 648.54ZM374.195 656.16L373.424 656.797L373.431 656.805L373.438 656.814L374.195 656.16ZM379.145 655.38L379.867 656.072L379.885 656.054L379.901 656.035L379.145 655.38ZM379.745 654.42L380.211 653.535L379.239 653.023L378.821 654.039L379.745 654.42ZM379.025 659.46L379.536 660.32L379.538 660.319L379.025 659.46ZM370.625 646.74L371.336 647.443L371.34 647.439L370.625 646.74ZM381.685 647.52C381.685 648.03 381.496 648.417 381.039 648.757L382.232 650.363C383.174 649.663 383.685 648.69 383.685 647.52H381.685ZM381.039 648.757C380.558 649.115 379.866 649.34 378.875 649.34V651.34C380.164 651.34 381.313 651.045 382.232 650.363L381.039 648.757ZM378.875 649.34C378.475 649.34 378.269 649.279 378.183 649.236L377.288 651.024C377.761 651.261 378.315 651.34 378.875 651.34V649.34ZM378.656 650.52C378.921 649.893 379.083 649.211 379.151 648.483L377.16 648.297C377.108 648.849 376.989 649.327 376.814 649.74L378.656 650.52ZM379.148 648.51C379.226 647.87 379.275 647.383 379.275 647.13H377.275C377.275 647.237 377.245 647.59 377.163 648.27L379.148 648.51ZM379.275 647.13C379.275 646.626 379.194 646.07 378.881 645.617C378.521 645.096 377.972 644.87 377.405 644.87V646.87C377.43 646.87 377.403 646.874 377.351 646.849C377.295 646.822 377.255 646.782 377.235 646.753C377.219 646.731 377.231 646.737 377.246 646.803C377.262 646.869 377.275 646.974 377.275 647.13H379.275ZM377.405 644.87C376.582 644.87 375.903 645.374 375.379 645.943L376.851 647.297C377.036 647.096 377.182 646.982 377.285 646.922C377.385 646.864 377.42 646.87 377.405 646.87V644.87ZM375.365 645.959C374.851 646.543 374.394 647.264 373.986 648.102L375.784 648.978C376.136 648.256 376.5 647.697 376.866 647.281L375.365 645.959ZM373.979 648.117C373.083 650.037 372.625 651.991 372.625 653.97H374.625C374.625 652.309 375.008 650.643 375.791 648.963L373.979 648.117ZM372.625 653.97C372.625 655.058 372.825 656.071 373.424 656.797L374.966 655.523C374.806 655.329 374.625 654.882 374.625 653.97H372.625ZM373.438 656.814C374.081 657.557 375.027 657.82 376.025 657.82V655.82C375.343 655.82 375.07 655.643 374.952 655.506L373.438 656.814ZM376.025 657.82C377.499 657.82 378.789 657.197 379.867 656.072L378.423 654.688C377.662 655.483 376.872 655.82 376.025 655.82V657.82ZM379.901 656.035C380.226 655.66 380.486 655.248 380.67 654.801L378.821 654.039C378.725 654.272 378.584 654.5 378.39 654.725L379.901 656.035ZM379.28 655.305C379.615 655.482 379.885 655.819 379.885 656.67H381.885C381.885 655.321 381.395 654.158 380.211 653.535L379.28 655.305ZM379.885 656.67C379.885 657.335 379.551 657.982 378.513 658.601L379.538 660.319C380.98 659.458 381.885 658.245 381.885 656.67H379.885ZM378.515 658.6C377.436 659.241 375.97 659.6 374.045 659.6V661.6C376.201 661.6 378.054 661.199 379.536 660.32L378.515 658.6ZM374.045 659.6C372.185 659.6 370.969 659.11 370.205 658.301C369.431 657.481 368.955 656.16 368.955 654.15H366.955C366.955 656.44 367.495 658.344 368.751 659.674C370.017 661.015 371.846 661.6 374.045 661.6V659.6ZM368.955 654.15C368.955 651.206 369.784 649.013 371.336 647.443L369.914 646.037C367.907 648.067 366.955 650.814 366.955 654.15H368.955ZM371.34 647.439C372.823 645.922 374.974 645.1 377.945 645.1V643.1C374.596 643.1 371.868 644.038 369.91 646.041L371.34 647.439ZM377.945 645.1C379.435 645.1 380.372 645.374 380.915 645.766C381.398 646.114 381.685 646.639 381.685 647.52H383.685C383.685 646.121 383.183 644.936 382.085 644.144C381.049 643.396 379.616 643.1 377.945 643.1V645.1ZM399.923 658.38L400.881 658.665L401.168 657.699L400.2 657.419L399.923 658.38ZM398.303 660.09L397.881 659.183L397.876 659.186L398.303 660.09ZM394.223 660.27L394.687 659.384L394.678 659.38L394.67 659.376L394.223 660.27ZM393.293 659.46L394.132 658.917L394.124 658.904L394.115 658.891L393.293 659.46ZM393.233 653.94L394.213 654.136L394.215 654.129L394.216 654.121L393.233 653.94ZM393.653 651.66L392.671 651.468L392.669 651.479L393.653 651.66ZM391.313 648.12L392.223 648.534L392.228 648.522L391.313 648.12ZM390.803 649.77L389.824 649.562L389.822 649.574L390.803 649.77ZM388.763 660L388.862 660.995L389.599 660.922L389.743 660.196L388.763 660ZM382.733 660.6L381.751 660.408L381.493 661.728L382.832 661.595L382.733 660.6ZM386.963 639L386.864 638.005L386.124 638.078L385.981 638.808L386.963 639ZM392.993 638.4L393.973 638.596L394.238 637.271L392.894 637.405L392.993 638.4ZM392.753 639.6L391.772 639.404L391.77 639.412L391.769 639.421L392.753 639.6ZM391.193 645.78L390.285 645.361L391.9 646.487L391.193 645.78ZM399.833 646.26L398.869 646.528L398.872 646.539L398.876 646.551L399.833 646.26ZM399.983 648.63L398.99 648.506L398.987 648.535L398.985 648.563L399.983 648.63ZM399.803 649.92L400.787 650.098L400.787 650.096L399.803 649.92ZM399.413 652.08L400.393 652.279L400.395 652.269L400.397 652.258L399.413 652.08ZM398.723 655.47L399.7 655.682L399.703 655.669L398.723 655.47ZM397.573 656.67C397.573 657.286 397.733 657.881 398.125 658.377C398.513 658.868 399.053 659.17 399.645 659.341L400.2 657.419C399.893 657.33 399.758 657.217 399.695 657.138C399.637 657.064 399.573 656.934 399.573 656.67H397.573ZM398.964 658.095C398.844 658.499 398.546 658.874 397.881 659.183L398.724 660.997C399.78 660.506 400.561 659.741 400.881 658.665L398.964 658.095ZM397.876 659.186C397.29 659.462 396.676 659.6 396.023 659.6V661.6C396.97 661.6 397.875 661.398 398.73 660.994L397.876 659.186ZM396.023 659.6C395.312 659.6 394.9 659.496 394.687 659.384L393.759 661.156C394.386 661.484 395.173 661.6 396.023 661.6V659.6ZM394.67 659.376C394.413 659.247 394.245 659.091 394.132 658.917L392.453 660.003C392.78 660.509 393.233 660.893 393.775 661.164L394.67 659.376ZM394.115 658.891C393.918 658.607 393.753 658.091 393.753 657.21H391.753C391.753 658.289 391.947 659.273 392.47 660.029L394.115 658.891ZM393.753 657.21C393.753 656.744 393.891 655.748 394.213 654.136L392.252 653.744C391.934 655.332 391.753 656.516 391.753 657.21H393.753ZM394.216 654.121L394.636 651.841L392.669 651.479L392.249 653.759L394.216 654.121ZM394.634 651.852C394.972 650.122 395.163 648.841 395.163 648.09H393.163C393.163 648.619 393.013 649.718 392.671 651.468L394.634 651.852ZM395.163 648.09C395.163 647.471 395.083 646.847 394.805 646.346C394.658 646.08 394.447 645.834 394.155 645.658C393.862 645.482 393.543 645.41 393.233 645.41V647.41C393.235 647.41 393.223 647.41 393.201 647.405C393.178 647.399 393.151 647.388 393.124 647.372C393.065 647.336 393.047 647.3 393.055 647.314C393.066 647.334 393.096 647.399 393.121 647.536C393.146 647.671 393.163 647.853 393.163 648.09H395.163ZM393.233 645.41C391.846 645.41 390.951 646.456 390.397 647.718L392.228 648.522C392.675 647.504 393.059 647.41 393.233 647.41V645.41ZM390.402 647.706C390.163 648.233 389.974 648.857 389.824 649.562L391.781 649.978C391.911 649.363 392.062 648.887 392.223 648.534L390.402 647.706ZM389.822 649.574L387.782 659.804L389.743 660.196L391.783 649.966L389.822 649.574ZM388.664 659.005L382.634 659.605L382.832 661.595L388.862 660.995L388.664 659.005ZM383.714 660.792L387.944 639.192L385.981 638.808L381.751 660.408L383.714 660.792ZM387.062 639.995L393.092 639.395L392.894 637.405L386.864 638.005L387.062 639.995ZM392.012 638.204L391.772 639.404L393.733 639.796L393.973 638.596L392.012 638.204ZM391.769 639.421C391.206 642.514 390.704 644.453 390.285 645.361L392.101 646.199C392.641 645.027 393.179 642.846 393.737 639.779L391.769 639.421ZM391.9 646.487C392.781 645.606 394.085 645.1 395.963 645.1V643.1C393.721 643.1 391.845 643.714 390.486 645.073L391.9 646.487ZM395.963 645.1C396.957 645.1 397.636 645.267 398.078 645.513C398.487 645.741 398.74 646.062 398.869 646.528L400.796 645.992C400.526 645.018 399.934 644.259 399.053 643.767C398.204 643.293 397.148 643.1 395.963 643.1V645.1ZM398.876 646.551C398.993 646.935 399.043 647.266 399.043 647.55H401.043C401.043 647.034 400.952 646.505 400.789 645.969L398.876 646.551ZM399.043 647.55C399.043 647.918 399.024 648.235 398.99 648.506L400.975 648.754C401.021 648.385 401.043 647.982 401.043 647.55H399.043ZM398.985 648.563C398.969 648.808 398.916 649.195 398.818 649.744L400.787 650.096C400.889 649.525 400.957 649.052 400.98 648.697L398.985 648.563ZM398.819 649.742L398.429 651.902L400.397 652.258L400.787 650.098L398.819 649.742ZM398.433 651.881L397.743 655.271L399.703 655.669L400.393 652.279L398.433 651.881ZM397.745 655.258C397.636 655.763 397.573 656.237 397.573 656.67H399.573C399.573 656.423 399.61 656.097 399.7 655.682L397.745 655.258ZM424.971 658.38L425.93 658.665L426.217 657.699L425.249 657.419L424.971 658.38ZM423.351 660.09L422.93 659.183L422.924 659.186L423.351 660.09ZM419.271 660.27L419.735 659.384L419.727 659.38L419.719 659.376L419.271 660.27ZM418.341 659.46L419.181 658.917L419.173 658.904L419.164 658.891L418.341 659.46ZM418.281 653.94L419.262 654.136L419.264 654.129L419.265 654.121L418.281 653.94ZM418.701 651.66L417.72 651.468L417.718 651.479L418.701 651.66ZM416.361 648.12L417.272 648.534L417.277 648.522L416.361 648.12ZM415.851 649.77L414.873 649.562L414.871 649.574L415.851 649.77ZM413.811 660L413.91 660.995L414.647 660.922L414.792 660.196L413.811 660ZM407.781 660.6L406.8 660.408L406.542 661.728L407.88 661.595L407.781 660.6ZM412.011 639L411.912 638.005L411.173 638.078L411.03 638.808L412.011 639ZM418.041 638.4L419.022 638.596L419.287 637.271L417.942 637.405L418.041 638.4ZM417.801 639.6L416.821 639.404L416.819 639.412L416.818 639.421L417.801 639.6ZM416.241 645.78L415.334 645.361L416.949 646.487L416.241 645.78ZM424.881 646.26L423.918 646.528L423.921 646.539L423.925 646.551L424.881 646.26ZM425.031 648.63L424.039 648.506L424.036 648.535L424.034 648.563L425.031 648.63ZM424.851 649.92L425.836 650.098L425.836 650.096L424.851 649.92ZM424.461 652.08L425.441 652.279L425.444 652.269L425.446 652.258L424.461 652.08ZM423.771 655.47L424.749 655.682L424.751 655.669L423.771 655.47ZM422.621 656.67C422.621 657.286 422.782 657.881 423.174 658.377C423.561 658.868 424.101 659.17 424.694 659.341L425.249 657.419C424.941 657.33 424.806 657.217 424.744 657.138C424.686 657.064 424.621 656.934 424.621 656.67H422.621ZM424.013 658.095C423.893 658.499 423.594 658.874 422.93 659.183L423.773 660.997C424.829 660.506 425.61 659.741 425.93 658.665L424.013 658.095ZM422.924 659.186C422.339 659.462 421.725 659.6 421.071 659.6V661.6C422.018 661.6 422.924 661.398 423.778 660.994L422.924 659.186ZM421.071 659.6C420.361 659.6 419.948 659.496 419.735 659.384L418.807 661.156C419.435 661.484 420.222 661.6 421.071 661.6V659.6ZM419.719 659.376C419.461 659.247 419.294 659.091 419.181 658.917L417.502 660.003C417.829 660.509 418.282 660.893 418.824 661.164L419.719 659.376ZM419.164 658.891C418.967 658.607 418.801 658.091 418.801 657.21H416.801C416.801 658.289 416.996 659.273 417.519 660.029L419.164 658.891ZM418.801 657.21C418.801 656.744 418.94 655.748 419.262 654.136L417.301 653.744C416.983 655.332 416.801 656.516 416.801 657.21H418.801ZM419.265 654.121L419.685 651.841L417.718 651.479L417.298 653.759L419.265 654.121ZM419.683 651.852C420.021 650.122 420.211 648.841 420.211 648.09H418.211C418.211 648.619 418.062 649.718 417.72 651.468L419.683 651.852ZM420.211 648.09C420.211 647.471 420.131 646.847 419.854 646.346C419.707 646.08 419.496 645.834 419.204 645.658C418.911 645.482 418.592 645.41 418.281 645.41V647.41C418.284 647.41 418.272 647.41 418.25 647.405C418.227 647.399 418.2 647.388 418.173 647.372C418.114 647.336 418.096 647.3 418.104 647.314C418.115 647.334 418.145 647.399 418.17 647.536C418.195 647.671 418.211 647.853 418.211 648.09H420.211ZM418.281 645.41C416.895 645.41 415.999 646.456 415.446 647.718L417.277 648.522C417.724 647.504 418.108 647.41 418.281 647.41V645.41ZM415.451 647.706C415.212 648.233 415.023 648.857 414.873 649.562L416.83 649.978C416.96 649.363 417.111 648.887 417.272 648.534L415.451 647.706ZM414.871 649.574L412.831 659.804L414.792 660.196L416.832 649.966L414.871 649.574ZM413.712 659.005L407.682 659.605L407.88 661.595L413.91 660.995L413.712 659.005ZM408.763 660.792L412.993 639.192L411.03 638.808L406.8 660.408L408.763 660.792ZM412.11 639.995L418.14 639.395L417.942 637.405L411.912 638.005L412.11 639.995ZM417.061 638.204L416.821 639.404L418.782 639.796L419.022 638.596L417.061 638.204ZM416.818 639.421C416.255 642.514 415.753 644.453 415.334 645.361L417.149 646.199C417.69 645.027 418.228 642.846 418.785 639.779L416.818 639.421ZM416.949 646.487C417.83 645.606 419.134 645.1 421.011 645.1V643.1C418.769 643.1 416.893 643.714 415.534 645.073L416.949 646.487ZM421.011 645.1C422.006 645.1 422.685 645.267 423.127 645.513C423.535 645.741 423.789 646.062 423.918 646.528L425.845 645.992C425.574 645.018 424.983 644.259 424.101 643.767C423.253 643.293 422.197 643.1 421.011 643.1V645.1ZM423.925 646.551C424.042 646.935 424.091 647.266 424.091 647.55H426.091C426.091 647.034 426.001 646.505 425.838 645.969L423.925 646.551ZM424.091 647.55C424.091 647.918 424.073 648.235 424.039 648.506L426.024 648.754C426.07 648.385 426.091 647.982 426.091 647.55H424.091ZM424.034 648.563C424.017 648.808 423.965 649.195 423.867 649.744L425.836 650.096C425.938 649.525 426.006 649.052 426.029 648.697L424.034 648.563ZM423.867 649.742L423.477 651.902L425.446 652.258L425.836 650.098L423.867 649.742ZM423.482 651.881L422.792 655.271L424.751 655.669L425.441 652.279L423.482 651.881ZM422.794 655.258C422.684 655.763 422.621 656.237 422.621 656.67H424.621C424.621 656.423 424.659 656.097 424.749 655.682L422.794 655.258ZM437.029 658.74L437.99 658.465L437.447 656.566L436.238 658.128L437.029 658.74ZM428.809 659.49L428.163 660.254L428.174 660.262L428.809 659.49ZM427.549 655.38L428.529 655.576L428.531 655.565L427.549 655.38ZM429.559 644.7L429.461 643.705L428.715 643.778L428.576 644.515L429.559 644.7ZM435.649 644.1L436.631 644.286L436.879 642.974L435.551 643.105L435.649 644.1ZM433.459 655.68L432.476 655.494L432.475 655.501L433.459 655.68ZM436.399 656.88L435.515 656.412L435.514 656.413L436.399 656.88ZM436.789 655.71L435.807 655.52L435.805 655.531L436.789 655.71ZM438.919 644.7L438.818 643.705L438.078 643.78L437.937 644.51L438.919 644.7ZM444.829 644.1L445.811 644.286L446.061 642.97L444.728 643.105L444.829 644.1ZM442.609 655.8L443.589 655.996L443.591 655.986L442.609 655.8ZM442.789 657.75L441.894 658.197L441.899 658.208L441.905 658.218L442.789 657.75ZM443.929 658.38L444.899 658.623L445.169 657.542L444.065 657.389L443.929 658.38ZM443.119 659.58L442.513 658.785L442.507 658.789L443.119 659.58ZM438.109 660.09L438.628 659.235L438.109 660.09ZM436.238 658.128C435.549 659.017 434.254 659.6 432.019 659.6V661.6C434.544 661.6 436.588 660.943 437.819 659.352L436.238 658.128ZM432.019 659.6C430.994 659.6 430.153 659.301 429.444 658.718L428.174 660.262C429.265 661.159 430.563 661.6 432.019 661.6V659.6ZM429.454 658.726C428.756 658.136 428.459 657.487 428.459 656.73H426.459C426.459 658.133 427.062 659.324 428.163 660.254L429.454 658.726ZM428.459 656.73C428.459 656.146 428.489 655.776 428.529 655.576L426.568 655.184C426.488 655.584 426.459 656.114 426.459 656.73H428.459ZM428.531 655.565L430.541 644.885L428.576 644.515L426.566 655.195L428.531 655.565ZM429.657 645.695L435.747 645.095L435.551 643.105L429.461 643.705L429.657 645.695ZM434.666 643.914L432.476 655.494L434.441 655.866L436.631 644.286L434.666 643.914ZM432.475 655.501C432.391 655.965 432.339 656.382 432.339 656.73H434.339C434.339 656.558 434.367 656.275 434.443 655.859L432.475 655.501ZM432.339 656.73C432.339 657.378 432.431 658.031 432.745 658.552C433.108 659.154 433.703 659.47 434.389 659.47V657.47C434.354 657.47 434.373 657.464 434.413 657.486C434.454 657.509 434.466 657.533 434.457 657.518C434.445 657.497 434.412 657.432 434.385 657.294C434.357 657.158 434.339 656.973 434.339 656.73H432.339ZM434.389 659.47C435.716 659.47 436.651 658.542 437.283 657.347L435.514 656.413C435.026 657.338 434.622 657.47 434.389 657.47V659.47ZM437.282 657.348C437.518 656.904 437.677 656.414 437.773 655.889L435.805 655.531C435.74 655.886 435.64 656.176 435.515 656.412L437.282 657.348ZM437.77 655.9L439.9 644.89L437.937 644.51L435.807 655.52L437.77 655.9ZM439.02 645.695L444.93 645.095L444.728 643.105L438.818 643.705L439.02 645.695ZM443.846 643.914L441.626 655.614L443.591 655.986L445.811 644.286L443.846 643.914ZM441.628 655.604C441.555 655.971 441.519 656.347 441.519 656.73H443.519C443.519 656.473 443.543 656.229 443.589 655.996L441.628 655.604ZM441.519 656.73C441.519 657.24 441.662 657.733 441.894 658.197L443.683 657.303C443.555 657.047 443.519 656.86 443.519 656.73H441.519ZM441.905 658.218C442.302 658.967 443.066 659.27 443.792 659.371L444.065 657.389C443.857 657.361 443.744 657.316 443.692 657.287C443.65 657.264 443.66 657.259 443.672 657.282L441.905 658.218ZM442.959 658.137C442.897 658.382 442.765 658.592 442.513 658.785L443.725 660.375C444.312 659.928 444.72 659.338 444.899 658.623L442.959 658.137ZM442.507 658.789C441.773 659.356 441.063 659.6 440.359 659.6V661.6C441.574 661.6 442.704 661.164 443.73 660.371L442.507 658.789ZM440.359 659.6C439.526 659.6 438.977 659.448 438.628 659.235L437.59 660.945C438.36 661.412 439.311 661.6 440.359 661.6V659.6ZM438.628 659.235C438.254 659.008 438.072 658.752 437.99 658.465L436.067 659.015C436.305 659.848 436.843 660.492 437.59 660.945L438.628 659.235ZM446.052 658.56L445.069 658.373L444.964 658.925L445.381 659.302L446.052 658.56ZM449.772 639L449.674 638.005L448.929 638.078L448.789 638.813L449.772 639ZM455.862 638.4L456.842 638.599L457.11 637.272L455.764 637.405L455.862 638.4ZM454.932 642.99L455.905 643.218L455.909 643.203L455.912 643.189L454.932 642.99ZM454.182 645.39L453.261 644.999L454.968 646.008L454.182 645.39ZM456.282 644.22L456.505 645.195L456.531 645.189L456.556 645.182L456.282 644.22ZM461.532 645.81L460.786 646.477L460.792 646.483L461.532 645.81ZM460.632 657.69L459.892 657.017L459.887 657.022L460.632 657.69ZM447.552 659.52L447.143 660.433L447.15 660.436L447.552 659.52ZM452.082 658.29L451.098 658.112L450.996 658.676L451.431 659.049L452.082 658.29ZM454.722 658.53L454.167 657.698L454.167 657.698L454.722 658.53ZM455.502 657.63L454.627 657.144L454.625 657.148L455.502 657.63ZM457.122 651.06L456.133 650.913L456.132 650.916L457.122 651.06ZM457.002 646.38L456.17 646.935L456.182 646.953L456.195 646.971L457.002 646.38ZM453.672 649.5L454.656 649.678L454.658 649.666L453.672 649.5ZM447.034 658.747L450.754 639.187L448.789 638.813L445.069 658.373L447.034 658.747ZM449.87 639.995L455.96 639.395L455.764 637.405L449.674 638.005L449.87 639.995ZM454.882 638.201L453.952 642.791L455.912 643.189L456.842 638.599L454.882 638.201ZM453.958 642.762C453.747 643.664 453.513 644.407 453.261 644.999L455.102 645.781C455.411 645.053 455.676 644.196 455.905 643.218L453.958 642.762ZM454.968 646.008C455.221 645.686 455.684 645.383 456.505 645.195L456.058 643.245C454.96 643.497 454.022 643.974 453.395 644.772L454.968 646.008ZM456.556 645.182C456.734 645.131 456.949 645.1 457.212 645.1V643.1C456.794 643.1 456.39 643.149 456.007 643.258L456.556 645.182ZM457.212 645.1C458.854 645.1 459.996 645.594 460.786 646.477L462.277 645.143C461.027 643.746 459.289 643.1 457.212 643.1V645.1ZM460.792 646.483C461.584 647.352 462.062 648.721 462.062 650.76H464.062C464.062 648.439 463.52 646.508 462.271 645.137L460.792 646.483ZM462.062 650.76C462.062 653.399 461.315 655.453 459.892 657.017L461.371 658.363C463.188 656.367 464.062 653.801 464.062 650.76H462.062ZM459.887 657.022C458.377 658.706 456.223 659.6 453.282 659.6V661.6C456.66 661.6 459.407 660.554 461.376 658.358L459.887 657.022ZM453.282 659.6C451.211 659.6 449.443 659.258 447.954 658.604L447.15 660.436C448.941 661.222 450.993 661.6 453.282 661.6V659.6ZM447.961 658.607C447.465 658.385 447.056 658.12 446.723 657.818L445.381 659.302C445.887 659.76 446.478 660.135 447.143 660.433L447.961 658.607ZM451.431 659.049C452.02 659.554 452.717 659.83 453.492 659.83V657.83C453.226 657.83 452.984 657.746 452.732 657.531L451.431 659.049ZM453.492 659.83C454.126 659.83 454.754 659.71 455.276 659.362L454.167 657.698C454.089 657.75 453.897 657.83 453.492 657.83V659.83ZM455.276 659.362C455.741 659.052 456.101 658.616 456.378 658.112L454.625 657.148C454.463 657.444 454.302 657.608 454.167 657.698L455.276 659.362ZM456.376 658.116C456.741 657.459 457.051 656.54 457.328 655.417C457.608 654.279 457.869 652.872 458.111 651.204L456.132 650.916C455.895 652.548 455.645 653.886 455.386 654.938C455.123 656.005 454.863 656.721 454.627 657.144L456.376 658.116ZM458.111 651.207C458.258 650.219 458.332 649.23 458.332 648.24H456.332C456.332 649.13 456.265 650.021 456.133 650.913L458.111 651.207ZM458.332 648.24C458.332 647.737 458.303 647.284 458.234 646.895C458.168 646.525 458.051 646.12 457.808 645.789L456.195 646.971C456.173 646.94 456.22 646.995 456.265 647.245C456.306 647.476 456.332 647.803 456.332 648.24H458.332ZM457.834 645.825C457.426 645.213 456.793 644.93 456.102 644.93V646.93C456.139 646.93 456.162 646.934 456.173 646.936C456.184 646.938 456.185 646.94 456.179 646.937C456.174 646.934 456.168 646.93 456.164 646.926C456.16 646.923 456.163 646.924 456.17 646.935L457.834 645.825ZM456.102 644.93C455.098 644.93 454.305 645.448 453.752 646.26C453.229 647.029 452.895 648.086 452.685 649.334L454.658 649.666C454.848 648.534 455.119 647.806 455.406 647.385C455.663 647.007 455.886 646.93 456.102 646.93V644.93ZM452.688 649.322L451.098 658.112L453.066 658.468L454.656 649.678L452.688 649.322Z" fill="white" mask="url(#path-4-outside-1_0_1)"/>
</g>
</g>
</g>
</g>
<defs>
<linearGradient id="paint0_linear_0_1" x1="454" y1="353" x2="657.5" y2="727" gradientUnits="userSpaceOnUse">
<stop offset="0.0172259" stop-color="#303097"/>
<stop offset="0.46501" stop-color="#2B2B70" stop-opacity="0.6"/>
<stop offset="1" stop-color="#101031"/>
</linearGradient>
<linearGradient id="paint1_linear_0_1" x1="275" y1="353" x2="71.5" y2="727" gradientUnits="userSpaceOnUse">
<stop offset="0.0172259" stop-color="#303097"/>
<stop offset="0.46501" stop-color="#2B2B70" stop-opacity="0.6"/>
<stop offset="1" stop-color="#101031"/>
</linearGradient>
</defs>
</svg>
